<svg xmlns="http://www.w3.org/2000/svg" width="16" height="16" overflow="visible" preserveAspectRatio="xMinYMid meet" viewBox="0 0 16 16"><path fill="#999" d="M12 5V2.5c0-.3-.2-.5-.5-.5H8V1c0-.6-.5-1-1-1H5c-.5 0-1 .4-1 1v1H.5c-.3 0-.5.2-.5.5v10c0 .3.2.5.5.5H5v3h7l3-3V5h-3zM5 1h2v1H5V1zM2 4V3h8v1H2zm10 10.6V13h1.6L12 14.6zm2-2.6h-3v.8h-.1l-.2-.2V8h.4c.2 0 .4 0 .5.1.2.1.3.2.4.3s.2.4.3.7h.1V7.7H7.7v1.4h.1c.1-.4.2-.7.5-.9.1-.1.4-.2.7-.2h.4v4.6c0 .1-.1.2-.2.2-.1.1-.2.1-.4.1h-.1v.1H11v2H6V6h8v6z"/></svg>