<svg xmlns="http://www.w3.org/2000/svg" width="24" height="24" overflow="visible" preserveAspectRatio="xMinYMid meet" viewBox="-3 0 24 24"><linearGradient id="a" x1="9.499" x2="9.499" y2="24" gradientUnits="userSpaceOnUse"><stop offset="0" stop-color="#95BFF8"/><stop offset=".557" stop-color="#84ADEF"/><stop offset="1" stop-color="#7CA4EB"/></linearGradient><path fill="url(#a)" d="M11.5 0H0v24h19V7.9"/><linearGradient id="b" x1="9.499" x2="9.499" y1="1" y2="23" gradientUnits="userSpaceOnUse"><stop offset="0" stop-color="#E7F4FC"/><stop offset="1" stop-color="#DEEFFC"/></linearGradient><path fill="url(#b)" d="M1 23V1h10.1L18 8.3V23"/><linearGradient id="c" x1="9.499" x2="9.499" y1="2" y2="22" gradientUnits="userSpaceOnUse"><stop offset="0" stop-color="#CEE9F9"/><stop offset="1" stop-color="#BBDFF8"/></linearGradient><path fill="url(#c)" d="M2 22V2h8.6L17 8.7V22"/><linearGradient id="d" x1="14.245" x2="14.245" y2="9.359" gradientUnits="userSpaceOnUse"><stop offset="0" stop-color="#95BFF8"/><stop offset=".557" stop-color="#84ADEF"/><stop offset="1" stop-color="#7CA4EB"/></linearGradient><path fill="url(#d)" d="M10 9s5.2-1.5 9 .4V7.9L11.5 0h-2c2.6 3.7.5 9 .5 9z"/><linearGradient id="e" x1="11.322" x2="14.45" y1="7.545" y2="4.417" gradientUnits="userSpaceOnUse"><stop offset="0" stop-color="#E7F4FC"/><stop offset=".518" stop-color="#E5F3FC"/><stop offset=".705" stop-color="#DEF0FB"/><stop offset=".837" stop-color="#D3EBFA"/><stop offset=".872" stop-color="#CEE9F9"/><stop offset="1" stop-color="#BDD8F0"/></linearGradient><path fill="url(#e)" d="M17.5 7.8c-.9-.2-2-.3-3.1-.3s-2.1.1-3 .3c.4-1.6.7-4.1-.2-6.4l6.3 6.4z"/></svg>