<svg xmlns="http://www.w3.org/2000/svg" width="24" height="24" overflow="visible" preserveAspectRatio="xMinYMid meet" viewBox="0 -2 24 24"><linearGradient id="a" x1="11.999" x2="11.999" y2="20" gradientUnits="userSpaceOnUse"><stop offset="0" stop-color="#F0A829"/><stop offset="1" stop-color="#C7671A"/></linearGradient><path fill="url(#a)" d="M1 0h22v20H1z"/><linearGradient id="b" x1="11.999" x2="11.999" y1="1" y2="19" gradientUnits="userSpaceOnUse"><stop offset="0" stop-color="#FFEBA8"/><stop offset="1" stop-color="#F8BE27"/></linearGradient><path fill="url(#b)" d="M2 1h20v18H2z"/><linearGradient id="c" x1="11.999" x2="11.999" y1="2" y2="18" gradientUnits="userSpaceOnUse"><stop offset="0" stop-color="#FFC30F"/><stop offset="1" stop-color="#F5AE0D"/></linearGradient><path fill="url(#c)" d="M3 2h18v16H3z"/><linearGradient id="d" x1="11.999" x2="11.999" y2="7" gradientUnits="userSpaceOnUse"><stop offset="0" stop-color="#F0A829"/><stop offset="1" stop-color="#C7671A"/></linearGradient><path fill="url(#d)" d="M0 0h24v7H0z"/><linearGradient id="e" x1="11.999" x2="11.999" y1="1" y2="6" gradientUnits="userSpaceOnUse"><stop offset="0" stop-color="#FFEBA8"/><stop offset="1" stop-color="#F8BE27"/></linearGradient><path fill="url(#e)" d="M1 1h22v5H1z"/><linearGradient id="f" x1="11.999" x2="11.999" y1="2" y2="5" gradientUnits="userSpaceOnUse"><stop offset="0" stop-color="#FFC30F"/><stop offset="1" stop-color="#F5AE0D"/></linearGradient><path fill="url(#f)" d="M2 2h20v3H2z"/><linearGradient id="g" x1="11.499" x2="11.499" y2="13.001" gradientUnits="userSpaceOnUse"><stop offset="0" stop-color="#8D470D"/><stop offset="1" stop-color="#7C3D09"/></linearGradient><path fill="url(#g)" d="M9 0v13l2.5-2 2.5 2V0"/><linearGradient id="h" x1="11.499" x2="11.499" y1="1" y2="10.935" gradientUnits="userSpaceOnUse"><stop offset="0" stop-color="#D58738"/><stop offset="1" stop-color="#AB551F"/></linearGradient><path fill="url(#h)" d="M10 1v9.9l1.5-1.2 1.5 1.2V1"/><linearGradient id="i" x1="11.5" x2="11.5" y1="2" y2="8.871" gradientUnits="userSpaceOnUse"><stop offset="0" stop-color="#D0813A"/><stop offset="1" stop-color="#AF551D"/></linearGradient><path fill="url(#i)" d="M11 2v6.8l.5-.4.5.5V2"/></svg>