<svg xmlns="http://www.w3.org/2000/svg" xmlns:xlink="http://www.w3.org/1999/xlink" preserveAspectRatio="xMinYMid meet" viewBox="157 -1305 148 125"><defs><style>.cls-1{clip-path:url(#clip-Courses)}.cls-2{fill:#eee}.cls-3{fill:#c4c8cc}.cls-4{fill:#fff}</style><clipPath id="clip-Courses"><rect width="148" height="125" x="157" y="-1305"/></clipPath></defs><g id="Courses" class="cls-1"><g id="Group_44" data-name="Group 44" transform="translate(-268 -1781)"><ellipse id="Ellipse_41" cx="74" cy="14.785" class="cls-2" data-name="Ellipse 41" rx="74" ry="14.785" transform="translate(425 571.43)"/><rect id="Rectangle_87" width="95.097" height="110.215" class="cls-3" data-name="Rectangle 87" transform="translate(451.909 476)"/><g id="Group_43" data-name="Group 43" transform="translate(464.04 494)"><rect id="Rectangle_88" width="31.043" height="34" class="cls-4" data-name="Rectangle 88" transform="translate(0)"/><rect id="Rectangle_89" width="31.043" height="34" class="cls-4" data-name="Rectangle 89" transform="translate(0 42)"/><rect id="Rectangle_90" width="31.067" height="34" class="cls-4" data-name="Rectangle 90" transform="translate(39.005)"/><rect id="Rectangle_91" width="31.067" height="34" class="cls-4" data-name="Rectangle 91" transform="translate(39.005 42)"/><rect id="Rectangle_92" width="23.023" height="3.18" class="cls-3" data-name="Rectangle 92" transform="translate(3.081 16.549)"/><rect id="Rectangle_93" width="23.023" height="3.18" class="cls-3" data-name="Rectangle 93" transform="translate(3.081 58.549)"/><rect id="Rectangle_94" width="23.023" height="3.18" class="cls-3" data-name="Rectangle 94" transform="translate(43.122 16.549)"/><rect id="Rectangle_95" width="23.023" height="3.18" class="cls-3" data-name="Rectangle 95" transform="translate(43.122 58.549)"/><rect id="Rectangle_96" width="14.014" height="3.18" class="cls-3" data-name="Rectangle 96" transform="translate(3.081 21.825)"/><rect id="Rectangle_97" width="18.845" height="3.18" class="cls-3" data-name="Rectangle 97" transform="translate(3.081 26.825)"/><rect id="Rectangle_98" width="14.014" height="3.18" class="cls-3" data-name="Rectangle 98" transform="translate(3.081 63.825)"/><rect id="Rectangle_99" width="18.845" height="3.18" class="cls-3" data-name="Rectangle 99" transform="translate(3.081 68.825)"/><rect id="Rectangle_100" width="14.014" height="3.18" class="cls-3" data-name="Rectangle 100" transform="translate(43.122 21.825)"/><rect id="Rectangle_101" width="18.845" height="3.18" class="cls-3" data-name="Rectangle 101" transform="translate(43.122 26.825)"/><rect id="Rectangle_102" width="14.014" height="3.18" class="cls-3" data-name="Rectangle 102" transform="translate(43.122 63.825)"/><rect id="Rectangle_103" width="18.845" height="3.18" class="cls-3" data-name="Rectangle 103" transform="translate(43.122 68.825)"/><ellipse id="Ellipse_42" cx="5.658" cy="5.652" class="cls-3" data-name="Ellipse 42" rx="5.658" ry="5.652" transform="translate(3.003 3.55)"/><ellipse id="Ellipse_43" cx="5.658" cy="5.652" class="cls-3" data-name="Ellipse 43" rx="5.658" ry="5.652" transform="translate(3.003 45.55)"/><ellipse id="Ellipse_44" cx="5.658" cy="5.652" class="cls-3" data-name="Ellipse 44" rx="5.658" ry="5.652" transform="translate(43.044 3.55)"/><ellipse id="Ellipse_45" cx="5.658" cy="5.652" class="cls-3" data-name="Ellipse 45" rx="5.658" ry="5.652" transform="translate(43.044 45.55)"/></g></g></g></svg>