<svg xmlns="http://www.w3.org/2000/svg" xmlns:svg="http://www.w3.org/2000/svg" id="svg4554" width="16" height="16" preserveAspectRatio="xMinYMid meet" version="1.1" viewBox="0 0 16 16"><metadata id="metadata4560"/><path id="path4552" d="m 10.60981,13.748496 q -0.42076,-0.2046 -0.42076,-0.6595 v -2.1834 H 0.36389001 q -0.15919999,0 -0.26154001,-0.102297 Q 0,10.700897 0,10.541796 V 2.5361969 q 0,-0.2388 0.20469002,-0.3297 0.22743999,-0.091 0.39800999,0.045 L 2.7860701,4.0708971 q 0.1250916,0.1024 0.1250916,0.2842998 v 3.639 H 10.18905 V 5.810797 q 0,-0.4548999 0.42076,-0.6596001 0.42075,-0.1932998 0.77327,0.1024 L 15.749821,8.892496 Q 16,9.0971966 16,9.4496973 16,9.8022974 15.749821,10.006998 l -4.366741,3.638798 q -0.36389,0.307 -0.77327,0.102297 z" style="fill:#999;fill-opacity:1;stroke-width:.9999997"/></svg>