<svg xmlns="http://www.w3.org/2000/svg" xmlns:svg="http://www.w3.org/2000/svg" id="svg956" width="16" height="16" overflow="visible" preserveAspectRatio="xMinYMid meet" version="1.1" viewBox="0 0 16 16"><metadata id="metadata962"/><path id="path954" fill="#999" d="M7 .7L.2 14.1c-.5 1 0 1.8 1.1 1.8h13.2c1.1 0 1.6-.8 1.1-1.8L8.8.7C8.3-.2 7.5-.2 7 .7zm2.4 12.7c0 .8-.7 1.5-1.5 1.5s-1.5-.7-1.5-1.5.7-1.5 1.5-1.5 1.5.6 1.5 1.5zm-.2-7.5v4c0 .5-.5 1-1 1h-.6c-.5 0-1-.5-1-1v-4c0-.6.5-1 1-1h.6c.6 0 1 .4 1 1z" style="fill:#ffb844;fill-opacity:1"/></svg>