<svg xmlns="http://www.w3.org/2000/svg" xmlns:svg="http://www.w3.org/2000/svg" id="svg2" width="16" height="16" overflow="visible" preserveAspectRatio="xMinYMid meet" version="1.1" viewBox="0 0 16 16" style="overflow:visible"><metadata id="metadata10"/><path id="path4" d="M 14.666667,0 1.3333333,0 C 0.6666667,0 0,0.6666667 0,1.3333333 L 0,14.666667 C 0,15.333333 0.6666667,16 1.3333333,16 L 14.666667,16 C 15.333333,16 16,15.333333 16,14.666667 L 16,1.3333333 C 16,0.6666667 15.333333,0 14.666667,0 Z m 0,13.333333 C 14.666667,14 14,14.666667 13.333333,14.666667 l -10.6666663,0 C 2,14.666667 1.3333333,14 1.3333333,13.333333 l 0,-7.9999997 C 1.3333333,4.6666667 2,4 2.6666667,4 L 13.333333,4 C 14,4 14.666667,4.6666667 14.666667,5.3333333 l 0,7.9999997 z M 13.066667,5.6 C 13.2,5.7333333 13.333333,5.8666667 13.333333,6 l 0,4.666667 c 0,0.4 -0.266666,0.666666 -0.666666,0.666666 l -1.333334,0 c -0.4,0.133334 -0.666666,-0.266666 -0.666666,-0.533333 l 0,-2.8 -2.8000003,0 C 7.4666667,8 7.2,7.7333333 7.2,7.3333333 L 7.2,6 C 7.2,5.7333333 7.4666667,5.3333333 7.8666667,5.3333333 l 4.8000003,0 c 0.133333,0 0.266666,0.1333334 0.4,0.2666667 z M 8.8,11.333333 l 0,1.333334 c 0,0.4 -0.2666667,0.666666 -0.6666667,0.666666 l -3.4666666,0 -1.3333334,0 c -0.4,0 -0.6666666,-0.4 -0.6666666,-0.666666 l 0,-4.666667 c 0,-0.4 0.2666666,-0.6666667 0.6666666,-0.6666667 l 1.3333334,0 C 5.0666667,7.2 5.3333333,7.6 5.3333333,7.8666667 l 0,2.8000003 2.8,0 c 0.4,0 0.6666667,0.266666 0.6666667,0.666666 z" style="fill:#999"/></svg>