<svg xmlns="http://www.w3.org/2000/svg" xmlns:svg="http://www.w3.org/2000/svg" id="svg4" width="16" height="16" overflow="visible" preserveAspectRatio="xMinYMid meet" version="1.1" viewBox="0 0 16 16"><metadata id="metadata10"/><path id="path2" d="M 16,8.1 C 16,4.1 13,0.7 9,0.3 v 3 c 2,0.5 4,2.5 4,4.9 0,2.8 -2.2,5 -5,5 -2.8,0 -5,-2.2 -5,-5 0,-1.1 0,-2.1 1,-3 v 1 C 4,6.7 4.5,7 5.1,7 h 1 C 6.6,7 7,6.7 7,6.2 v -5 C 7,0.6 6.6,0 6.1,0 h -5 C 0.5,0 0,0.6 0,1.2 v 1 C 0,2.7 0.5,3 1.1,3 H 2 C 0.9,4 0.2,6.1 0.2,8 c 0,4.4 3.5,8 7.9,8 4.3,0 7.9,-3.5 7.9,-7.9 z" style="fill:#999"/></svg>