<svg xmlns="http://www.w3.org/2000/svg" xmlns:svg="http://www.w3.org/2000/svg" id="svg4" width="16" height="16" overflow="visible" preserveAspectRatio="xMinYMid meet" version="1.1" viewBox="0 0 16 16"><metadata id="metadata10"/><path id="path2" d="M 0,8.1 C 0,4.1 3,0.7 7,0.3 v 3 C 5,3.8 3,5.8 3,8.2 c 0,2.8 2.2,5 5,5 2.8,0 5,-2.2 5,-5 0,-1.1 0,-2.1 -1,-3 v 1 C 12,6.7 11.5,7 10.9,7 h -1 C 9.4,7 9,6.7 9,6.2 v -5 C 9,0.6 9.4,0 9.9,0 h 5 C 15.5,0 16,0.6 16,1.2 v 1 C 16,2.7 15.5,3 14.9,3 H 14 c 1.1,1 1.8,3.1 1.8,5 0,4.4 -3.5,8 -7.9,8 C 3.6,16 0,12.5 0,8.1 Z" style="fill:#999"/></svg>