<svg xmlns="http://www.w3.org/2000/svg" width="24" height="24" overflow="visible" preserveAspectRatio="xMinYMid meet" viewBox="0 0 24 24"><linearGradient id="a" x1="10.499" x2="10.499" y2="19.431" gradientUnits="userSpaceOnUse"><stop offset="0" stop-color="#76A1F0"/><stop offset="1" stop-color="#6B90D5"/></linearGradient><path fill="url(#a)" d="M19 0H2C.9 0 0 .9 0 2v11.3C0 14.4.9 15 2 15v4.4L6.1 15H19c1.1 0 2-.5 2-1.6V2c0-1.1-1-2-2-2z"/><linearGradient id="b" x1="10.499" x2="10.499" y1=".953" y2="16.838" gradientUnits="userSpaceOnUse"><stop offset="0" stop-color="#BBE0F7"/><stop offset="1" stop-color="#82B4FB"/></linearGradient><path fill="url(#b)" d="M3 14H2c-.4 0-1-.1-1-.6V2c0-.6.5-1 1-1h17c.5 0 1 .5 1 1v11.3c0 .6-.8.6-1 .6H5.7L3 16.8V14z"/><linearGradient id="c" x1="10.498" x2="10.498" y1="1.978" y2="14.314" gradientUnits="userSpaceOnUse"><stop offset="0" stop-color="#95BFF8"/><stop offset=".557" stop-color="#84ADEF"/><stop offset="1" stop-color="#7CA4EB"/></linearGradient><path fill="url(#c)" d="M4 13H2V2h17v11H5.2L4 14.3V13z"/><path fill="#FFF" d="M17 11H4v-1h13v1zm0-3H4v1h13V8zm0-2H4v1h13V6zm0-2H4v1h13V4z"/><linearGradient id="d" x1="15" x2="15" y1="7.896" y2="23.897" gradientUnits="userSpaceOnUse"><stop offset="0" stop-color="#90C50E"/><stop offset="1" stop-color="#70A034"/></linearGradient><path fill="url(#d)" d="M22 7.9H8c-1.1 0-2 .7-2 1.8v9c0 1.1.9 2 2 2v3.2l3.1-3H22c1.1 0 2-1.1 2-2.2v-9c0-1.1-.9-1.8-2-1.8z"/><linearGradient id="e" x1="15" x2="15" y1="8.896" y2="21.391" gradientUnits="userSpaceOnUse"><stop offset="0" stop-color="#D9F991"/><stop offset=".239" stop-color="#D7F88D"/><stop offset=".45" stop-color="#D1F383"/><stop offset=".651" stop-color="#C6EC71"/><stop offset=".844" stop-color="#B7E257"/><stop offset="1" stop-color="#A8D73D"/></linearGradient><path fill="url(#e)" d="M9 19.9H8c-.6 0-1-.7-1-1.2v-9c0-.6.4-.8 1-.8h14c.6 0 1 .2 1 .8v9c0 .6-.4 1.2-1 1.2H10.6L9 21.4v-1.5z"/><linearGradient id="f" x1="15" x2="15" y1="9.896" y2="18.896" gradientUnits="userSpaceOnUse"><stop offset="0" stop-color="#B3E810"/><stop offset="1" stop-color="#90C60D"/></linearGradient><path fill="url(#f)" d="M10 18.9H8v-9h14v9H10"/><path fill="#FFF" d="M20 16.9H10v-1h10v1zm0-3H10v1h10v-1zm0-2H10v1h10v-1z"/></svg>