<svg xmlns="http://www.w3.org/2000/svg" xmlns:xlink="http://www.w3.org/1999/xlink" width="16" height="16" preserveAspectRatio="xMinYMid meet" viewBox="0 0 239.75 240"><defs><style>.cls-1,.cls-2,.cls-3{stroke:#000;stroke-miterlimit:10}.cls-1{stroke-width:7px;fill:url(#Unbenannter_Verlauf_4)}.cls-2,.cls-3{fill:none;stroke-width:13px}.cls-3{fill:#fff}</style><linearGradient id="Unbenannter_Verlauf_4" x1="37.54" x2="202.21" y1="37.67" y2="202.33" gradientUnits="userSpaceOnUse"><stop offset="0" stop-color="#ffe600"/><stop offset=".4" stop-color="#fde501"/><stop offset=".54" stop-color="#f8e005" stop-opacity=".99"/><stop offset=".64" stop-color="#eed80b" stop-opacity=".97"/><stop offset=".73" stop-color="#e0cc15" stop-opacity=".94"/><stop offset=".8" stop-color="#cdbd21" stop-opacity=".9"/><stop offset=".86" stop-color="#b7aa30" stop-opacity=".86"/><stop offset=".92" stop-color="#9c9342" stop-opacity=".81"/><stop offset=".97" stop-color="#7e7a56" stop-opacity=".75"/><stop offset="1" stop-color="#666" stop-opacity=".7"/></linearGradient></defs><title>biggrin</title><g id="Ebene_3" data-name="Ebene 3"><ellipse cx="119.88" cy="120" class="cls-1" rx="116.38" ry="116.5"/><path d="M55.5,79.5c.28-13.06,11-24.72,24-25s25,13,25,25" class="cls-2" transform="translate(-0.25)"/><path d="M184.5,79.5c-.28-13.06-10.95-24.72-24-25s-25,13-25,25" class="cls-2" transform="translate(-0.25)"/><path d="M39.5,102.5s-1,97,80,97c80,0,81-97,81-97-3,0-22,33-80,33C66.5,135.5,40.5,102.5,39.5,102.5Z" class="cls-3" transform="translate(-0.25)"/></g></svg>