<svg xmlns="http://www.w3.org/2000/svg" xmlns:xlink="http://www.w3.org/1999/xlink" width="16" height="16" preserveAspectRatio="xMinYMid meet" viewBox="0 0 240 240"><defs><style>.cls-1{fill:#ffff7b}.cls-2{fill:#f7f77b}.cls-3{fill:#b5b539}.cls-4{fill:#d6d652}.cls-5{fill:#e7e763}.cls-6{fill:#efef73}</style></defs><title>martin</title><g id="Ebene_3" data-name="Ebene 3"><image width="15" height="15" transform="scale(16)" xlink:href="C:\Users\Andreas\Downloads\martin.gif"/></g><g id="Black"><rect width="16" height="16" x="16" y="32"/><rect width="16" height="16" x="32" y="16"/><rect width="16" height="16" x="48"/><rect width="16" height="16" x="64"/><rect width="16" height="16" x="65"/><rect width="16" height="16" x="66"/><rect width="16" height="16" x="67"/><rect width="16" height="16" x="68"/><rect width="16" height="16" x="69"/><rect width="16" height="16" x="80"/><rect width="16" height="16" x="96"/><rect width="16" height="16" x="112"/><rect width="16" height="16" x="128"/><rect width="16" height="16" x="144"/><rect width="16" height="16" x="160"/><rect width="16" height="16" x="176"/><rect width="16" height="16" x="176" y="16"/><rect width="16" height="16" x="192" y="16"/><rect width="16" height="16" x="160" y="16"/><rect width="16" height="16" x="144" y="16"/><rect width="16" height="16" x="128" y="16"/><rect width="16" height="16" x="112" y="16"/><rect width="16" height="16" x="96" y="16"/><rect width="16" height="16" x="80" y="16"/><rect width="16" height="16" x="64" y="16"/><rect width="16" height="16" x="48" y="16"/><rect width="16" height="16" x="48" y="32"/><rect width="16" height="16" x="32" y="32"/><rect width="16" height="16" x="64" y="32"/><rect width="16" height="16" x="80" y="32"/><rect width="16" height="16" x="96" y="32"/><rect width="16" height="16" x="112" y="32"/><rect width="16" height="16" x="128" y="32"/><rect width="16" height="16" x="144" y="32"/><rect width="16" height="16" x="160" y="32"/><rect width="16" height="16" x="176" y="32"/><rect width="16" height="16" x="192" y="32"/><rect width="16" height="16" x="208" y="32"/><rect width="16" height="16" x="208" y="48"/><rect width="16" height="16" x="192" y="48"/><rect width="16" height="16" x="192" y="64"/><rect width="16" height="16" x="208" y="64"/><rect width="16" height="16" x="208" y="80"/><rect width="16" height="16" x="192" y="80"/><rect width="16" height="16" x="208" y="96"/><rect width="16" height="16" x="208" y="112"/><rect width="16" height="16" x="208" y="128"/><rect width="16" height="16" x="208" y="144"/><rect width="16" height="16" x="192" y="160"/><rect width="16" height="16" x="192" y="176"/><rect width="16" height="16" x="192" y="192"/><rect width="16" height="16" x="176" y="208"/><rect width="16" height="16" x="160" y="208"/><rect width="16" height="16" x="160" y="192"/><rect width="16" height="16" x="160" y="176"/><rect width="16" height="16" x="160" y="160"/><rect width="16" height="16" x="144" y="160"/><rect width="16" height="16" x="144" y="144"/><rect width="16" height="16" x="128" y="144"/><rect width="16" height="16" x="112" y="144"/><rect width="16" height="16" x="128" y="176"/><rect width="16" height="16" x="112" y="176"/><rect width="16" height="16" x="96" y="176"/><rect width="16" height="16" x="80" y="160"/><rect width="16" height="16" x="80" y="144"/><rect width="16" height="16" x="96" y="144"/><rect width="16" height="16" x="64" y="160"/><rect width="16" height="16" x="64" y="176"/><rect width="16" height="16" x="64" y="192"/><rect width="16" height="16" x="64" y="208"/><rect width="16" height="16" x="64" y="224"/><rect width="16" height="16" x="80" y="224"/><rect width="16" height="16" x="96" y="224"/><rect width="16" height="16" x="112" y="224"/><rect width="16" height="16" x="128" y="224"/><rect width="16" height="16" x="144" y="224"/><rect width="16" height="16" x="144" y="208"/><rect width="16" height="16" x="128" y="208"/><rect width="16" height="16" x="112" y="208"/><rect width="16" height="16" x="96" y="208"/><rect width="16" height="16" x="80" y="208"/><rect width="16" height="16" x="48" y="208"/><rect width="16" height="16" x="32" y="192"/><rect width="16" height="16" x="32" y="176"/><rect width="16" height="16" x="32" y="160"/><rect width="16" height="16" x="16" y="144"/><rect width="16" height="16" x="16" y="128"/><rect width="16" height="16" x="16" y="112"/><rect width="16" height="16" x="16" y="96"/><rect width="16" height="16" x="16" y="80"/><rect width="16" height="16" x="32" y="80"/><rect width="16" height="16" x="80" y="80"/><rect width="16" height="16" x="80" y="96"/><rect width="16" height="16" x="64" y="96"/><rect width="16" height="16" x="64" y="80"/><rect width="16" height="16" x="144" y="80"/><rect width="16" height="16" x="160" y="80"/><rect width="16" height="16" x="160" y="96"/><rect width="16" height="16" x="144" y="96"/><rect width="16" height="16" x="16" y="64"/><rect width="16" height="16" x="32" y="64"/><rect width="16" height="16" x="32" y="48"/><rect width="16" height="16" x="16" y="48"/></g><g id="Yellow"><rect width="16" height="16" x="48" y="48" class="cls-1"/><rect width="16" height="16" x="64" y="48" class="cls-1"/><rect width="16" height="16" x="80" y="48" class="cls-1"/><rect width="16" height="16" x="96" y="48" class="cls-1"/><rect width="16" height="16" x="112" y="48" class="cls-1"/><rect width="16" height="16" x="112" y="64" class="cls-1"/><rect width="16" height="16" x="96" y="64" class="cls-1"/><rect width="16" height="16" x="80" y="64" class="cls-1"/><rect width="16" height="16" x="64" y="64" class="cls-1"/><rect width="16" height="16" x="48" y="64" class="cls-1"/><rect width="16" height="16" x="48" y="80" class="cls-1"/><rect width="16" height="16" x="48" y="96" class="cls-1"/><rect width="16" height="16" x="32" y="96" class="cls-1"/><rect width="16" height="16" x="48" y="112" class="cls-1"/><rect width="16" height="16" x="128" y="48" class="cls-2"/><rect width="16" height="16" x="144" y="48" class="cls-2"/><rect width="16" height="16" x="144" y="64" class="cls-2"/><rect width="16" height="16" x="128" y="64" class="cls-2"/><rect width="16" height="16" x="128" y="80" class="cls-2"/><rect width="16" height="16" x="128" y="96" class="cls-2"/><rect width="16" height="16" x="112" y="96" class="cls-2"/><rect width="16" height="16" x="112" y="112" class="cls-2"/><rect width="16" height="16" x="96" y="112" class="cls-2"/><rect width="16" height="16" x="80" y="128" class="cls-2"/><rect width="16" height="16" x="64" y="128" class="cls-2"/><rect width="16" height="16" x="64" y="144" class="cls-2"/><rect width="16" height="16" x="48" y="144" class="cls-2"/><rect width="16" height="16" x="48" y="128" class="cls-2"/><rect width="16" height="16" x="32" y="112" class="cls-2"/><rect width="16" height="16" x="48" y="192" class="cls-3"/><rect width="16" height="16" x="80" y="192" class="cls-3"/><rect width="16" height="16" x="96" y="192" class="cls-3"/><rect width="16" height="16" x="112" y="192" class="cls-3"/><rect width="16" height="16" x="128" y="192" class="cls-3"/><rect width="16" height="16" x="144" y="192" class="cls-3"/><rect width="16" height="16" x="144" y="176" class="cls-3"/><rect width="16" height="16" x="128" y="160" class="cls-3"/><rect width="16" height="16" x="112" y="160" class="cls-4"/><rect width="16" height="16" x="96" y="160" class="cls-4"/><rect width="16" height="16" x="80" y="176" class="cls-4"/><rect width="16" height="16" x="176" y="144" class="cls-4"/><rect width="16" height="16" x="160" y="144" class="cls-4"/><rect width="16" height="16" x="160" y="128" class="cls-4"/><rect width="16" height="16" x="176" y="128" class="cls-4"/><rect width="16" height="16" x="176" y="112" class="cls-4"/><rect width="16" height="16" x="160" y="112" class="cls-4"/><rect width="16" height="16" x="144" y="128" class="cls-4"/><rect width="16" height="16" x="128" y="128" class="cls-4"/><rect width="16" height="16" x="128" y="112" class="cls-5"/><rect width="16" height="16" x="144" y="112" class="cls-5"/><rect width="16" height="16" x="176" y="96" class="cls-5"/><rect width="16" height="16" x="176" y="80" class="cls-5"/><rect width="16" height="16" x="176" y="70" class="cls-5"/><rect width="16" height="16" x="176" y="64" class="cls-5"/><rect width="16" height="16" x="176" y="48" class="cls-5"/><rect width="16" height="16" x="32" y="128" class="cls-5"/><rect width="16" height="16" x="32" y="144" class="cls-5"/><rect width="16" height="16" x="48" y="160" class="cls-5"/><rect width="16" height="16" x="48" y="176" class="cls-3"/><rect width="16" height="16" x="48" y="192" class="cls-3"/><rect width="16" height="16" x="112" y="128" class="cls-6"/><rect width="16" height="16" x="96" y="128" class="cls-6"/><rect width="16" height="16" x="160" y="48" class="cls-6"/><rect width="16" height="16" x="160" y="64" class="cls-6"/><rect width="16" height="16" x="176" y="192" class="cls-3"/><rect width="16" height="16" x="176" y="176" class="cls-3"/><rect width="16" height="16" x="176" y="160" class="cls-3"/><rect width="16" height="16" x="192" y="144" class="cls-3"/><rect width="16" height="16" x="192" y="128" class="cls-3"/><rect width="16" height="16" x="192" y="112" class="cls-3"/><rect width="16" height="16" x="192" y="96" class="cls-3"/><rect width="16" height="16" x="64" y="112" class="cls-1"/><rect width="16" height="16" x="80" y="112" class="cls-1"/><rect width="16" height="16" x="96" y="96" class="cls-1"/><rect width="16" height="16" x="96" y="80" class="cls-1"/><rect width="16" height="16" x="112" y="80" class="cls-1"/></g></svg>