<svg xmlns="http://www.w3.org/2000/svg" xmlns:xlink="http://www.w3.org/1999/xlink" width="16" height="16" preserveAspectRatio="xMinYMid meet" viewBox="0 0 239.75 240"><defs><style>.cls-1,.cls-2,.cls-3,.cls-4{stroke:#000;stroke-miterlimit:10}.cls-1{stroke-width:7px;fill:url(#Unbenannter_Verlauf_4)}.cls-3{stroke-width:5px}.cls-4{stroke-width:2px}</style><linearGradient id="Unbenannter_Verlauf_4" x1="37.54" x2="202.21" y1="37.67" y2="202.33" gradientUnits="userSpaceOnUse"><stop offset="0" stop-color="#ffe600"/><stop offset=".4" stop-color="#fde501"/><stop offset=".54" stop-color="#f8e005" stop-opacity=".99"/><stop offset=".64" stop-color="#eed80b" stop-opacity=".97"/><stop offset=".73" stop-color="#e0cc15" stop-opacity=".94"/><stop offset=".8" stop-color="#cdbd21" stop-opacity=".9"/><stop offset=".86" stop-color="#b7aa30" stop-opacity=".86"/><stop offset=".92" stop-color="#9c9342" stop-opacity=".81"/><stop offset=".97" stop-color="#7e7a56" stop-opacity=".75"/><stop offset="1" stop-color="#666" stop-opacity=".7"/></linearGradient></defs><title>mixed</title><g id="Ebene_3" data-name="Ebene 3"><ellipse cx="119.88" cy="120" class="cls-1" rx="116.38" ry="116.5"/><circle cx="159.75" cy="81" r="16" class="cls-2"/><path d="M59,92c-1-.81,9-34.56,30-38,17.84-2.93,27.53,2.88,27,4s-10.23,4.17-27,7C68.57,68.44,60,92.77,59,92Z" class="cls-3" transform="translate(-0.25)"/><circle cx="77.25" cy="89.5" r="16" class="cls-2"/><path d="M67.5,131.5c-7.72-6.31-7.21,21.77-4,23,6.5,2.5,61.5,24.5,85,41,6.61,4.64,18.07-19.39,10-22C126,163,73,136,67.5,131.5Z" class="cls-4" transform="translate(-0.25)"/></g></svg>