<svg xmlns="http://www.w3.org/2000/svg" xmlns:xlink="http://www.w3.org/1999/xlink" width="16" height="16" preserveAspectRatio="xMinYMid meet" viewBox="0 0 239.75 240"><defs><style>.cls-1,.cls-2,.cls-3,.cls-4{stroke:#000;stroke-miterlimit:10}.cls-1{stroke-width:7px;fill:url(#Unbenannter_Verlauf_8)}.cls-2{fill:none;stroke-width:13px}.cls-4{stroke-width:5px}</style><linearGradient id="Unbenannter_Verlauf_8" x1="37.54" x2="202.21" y1="37.67" y2="202.33" gradientUnits="userSpaceOnUse"><stop offset="0" stop-color="#fff"/><stop offset=".17" stop-color="#ddddfb" stop-opacity=".94"/><stop offset=".58" stop-color="#9292f4" stop-opacity=".81"/><stop offset=".86" stop-color="#6262ef" stop-opacity=".73"/><stop offset="1" stop-color="#5050ed" stop-opacity=".7"/></linearGradient></defs><title>sad</title><g id="Ebene_3" data-name="Ebene 3"><ellipse cx="119.88" cy="120" class="cls-1" rx="116.38" ry="116.5"/><path d="M71,176c4.28-32.47,16.25-42,49-42s44.72,9.53,49,42" class="cls-2" transform="translate(-0.25)"/><circle cx="79.75" cy="81" r="16" class="cls-3"/><circle cx="159.75" cy="81" r="16" class="cls-3"/><path d="M68,81c-1-.81-2-17.56,19-21,17.84-2.93,25.53,17.88,25,19s-4.23-3.83-21-1C70.57,81.44,69,81.77,68,81Z" class="cls-4" transform="translate(-0.25)"/><path d="M172.88,81c1-.81,1-17.56-20-21-17.84-2.93-24.53,17.88-24,19s4.23-3.83,21-1C170.3,81.44,171.93,81.77,172.88,81Z" class="cls-4" transform="translate(-0.25)"/></g></svg>