<svg xmlns="http://www.w3.org/2000/svg" xmlns:xlink="http://www.w3.org/1999/xlink" width="16" height="16" preserveAspectRatio="xMinYMid meet" viewBox="0 0 239.75 240"><defs><style>.cls-1,.cls-2,.cls-3,.cls-4{stroke:#000;stroke-miterlimit:10}.cls-1{stroke-width:7px;fill:url(#Unbenannter_Verlauf_4)}.cls-2{fill:#fff;stroke-width:10px}.cls-4{stroke-width:5px}</style><linearGradient id="Unbenannter_Verlauf_4" x1="37.54" x2="202.21" y1="37.67" y2="202.33" gradientUnits="userSpaceOnUse"><stop offset="0" stop-color="#ffe600"/><stop offset=".4" stop-color="#fde501"/><stop offset=".54" stop-color="#f8e005" stop-opacity=".99"/><stop offset=".64" stop-color="#eed80b" stop-opacity=".97"/><stop offset=".73" stop-color="#e0cc15" stop-opacity=".94"/><stop offset=".8" stop-color="#cdbd21" stop-opacity=".9"/><stop offset=".86" stop-color="#b7aa30" stop-opacity=".86"/><stop offset=".92" stop-color="#9c9342" stop-opacity=".81"/><stop offset=".97" stop-color="#7e7a56" stop-opacity=".75"/><stop offset="1" stop-color="#666" stop-opacity=".7"/></linearGradient></defs><title>thoughtful</title><g id="Ebene_3" data-name="Ebene 3"><ellipse cx="119.88" cy="120" class="cls-1" rx="116.38" ry="116.5"/><ellipse cx="79.75" cy="103.5" class="cls-2" rx="27" ry="34"/><circle cx="72.25" cy="91.5" r="16" class="cls-3"/><ellipse cx="159.75" cy="102" class="cls-2" rx="27" ry="34"/><circle cx="152.75" cy="89" r="16" class="cls-3"/><path d="M128,60c-1-.81,9-34.56,30-38,17.84-2.93,27.53,2.88,27,4s-10.23,4.17-27,7C137.57,36.44,129,60.77,128,60Z" class="cls-4" transform="translate(-0.25 1)"/><path d="M110,62c1-.81-9-34.56-30-38-17.83-2.93-27.53,2.88-27,4s10.24,4.17,27,7C100.38,38.44,109,62.77,110,62Z" class="cls-4" transform="translate(-0.25 1)"/><path d="M93.5,188.5c-1,.5,26-1,47,1,25.06,2.35,30.3-26.76,29.5-27.47-.59-.53-11.23,15.42-28,13.67C121.57,173.58,94.45,188,93.5,188.5Z" class="cls-4" transform="translate(-0.25 1)"/></g></svg>