<svg xmlns="http://www.w3.org/2000/svg" xmlns:xlink="http://www.w3.org/1999/xlink" width="16" height="16" preserveAspectRatio="xMinYMid meet" viewBox="0 0 239.75 240"><defs><style>.cls-1,.cls-2,.cls-3,.cls-4,.cls-5,.cls-6{stroke:#000;stroke-miterlimit:10}.cls-1{stroke-width:7px;fill:url(#Unbenannter_Verlauf_4)}.cls-3{stroke-width:5px}.cls-4{fill:none;stroke-width:13px}.cls-5{fill:#fff;stroke-width:8px}.cls-6{stroke-width:.75px}</style><linearGradient id="Unbenannter_Verlauf_4" x1="37.54" x2="202.21" y1="37.67" y2="202.33" gradientUnits="userSpaceOnUse"><stop offset="0" stop-color="#ffe600"/><stop offset=".4" stop-color="#fde501"/><stop offset=".54" stop-color="#f8e005" stop-opacity=".99"/><stop offset=".64" stop-color="#eed80b" stop-opacity=".97"/><stop offset=".73" stop-color="#e0cc15" stop-opacity=".94"/><stop offset=".8" stop-color="#cdbd21" stop-opacity=".9"/><stop offset=".86" stop-color="#b7aa30" stop-opacity=".86"/><stop offset=".92" stop-color="#9c9342" stop-opacity=".81"/><stop offset=".97" stop-color="#7e7a56" stop-opacity=".75"/><stop offset="1" stop-color="#666" stop-opacity=".7"/></linearGradient></defs><title>wideeyes</title><g id="Ebene_3" data-name="Ebene 3"><ellipse cx="119.88" cy="120" class="cls-1" rx="116.38" ry="116.5"/><circle cx="159.75" cy="81" r="16" class="cls-2"/><path d="M62,100c-1-.81,5-20.56,26-24,17.84-2.93,21.53,13.88,21,15s-4.23-6.83-21-4C67.57,90.44,63,100.77,62,100Z" class="cls-3" transform="translate(-0.25)"/><path d="M72,162c-.5-.5,21.46,28.52,44,29,23.5.5,54.5-27.5,54-30" class="cls-4" transform="translate(-0.25)"/><circle cx="77.79" cy="87.14" r="39.77" class="cls-5"/><circle cx="76.45" cy="87.5" r="8.1" class="cls-6"/><circle cx="162.99" cy="87.14" r="39.77" class="cls-5"/><circle cx="164.05" cy="87.5" r="8.1" class="cls-6"/></g></svg>