<svg xmlns="http://www.w3.org/2000/svg" xmlns:xlink="http://www.w3.org/1999/xlink" width="16" height="16" x="0" y="0" style="overflow:visible;enable-background:new 0 0 16 16" preserveAspectRatio="xMinYMid meet" version="1.1" viewBox="0 0 16 16" xml:space="preserve"><path style="fill:#999" d="M0.6,15.4C0.2,15,0,14.5,0,14c0-0.5,0.2-1,0.6-1.4C1,12.2,1.5,12,2,12c0.5,0,1,0.2,1.4,0.6	C3.8,13,4,13.5,4,14c0,0.5-0.2,1-0.6,1.4C3,15.8,2.5,16,2,16C1.5,16,1,15.8,0.6,15.4z M0.6,9.4C0.2,9,0,8.5,0,8s0.2-1,0.6-1.4	C1,6.2,1.5,6,2,6c0.5,0,1,0.2,1.4,0.6C3.8,7,4,7.5,4,8S3.8,9,3.4,9.4C3,9.8,2.5,10,2,10C1.5,10,1,9.8,0.6,9.4z M0.6,3.4	C0.2,3,0,2.5,0,2s0.2-1,0.6-1.4C1,0.2,1.5,0,2,0c0.5,0,1,0.2,1.4,0.6C3.8,1,4,1.5,4,2S3.8,3,3.4,3.4C3,3.8,2.5,4,2,4	C1.5,4,1,3.8,0.6,3.4z M6,13h10v2H6V13z M6,7h10v2H6V7z M6,1v2h10V1H6z"/></svg>