<svg xmlns="http://www.w3.org/2000/svg" xmlns:xlink="http://www.w3.org/1999/xlink" width="16" height="16" x="0" y="0" style="overflow:visible;enable-background:new -.1 0 16 16" preserveAspectRatio="xMinYMid meet" version="1.1" viewBox="-0.1 0 16 16" xml:space="preserve"><path style="fill:#999" d="M15.9,2H8.3L4.6,16H2L0,8.7l1.9-0.5l1.3,4.9L6.8,0h9.1V2z M12.8,6.2c-0.1,0.3-0.1,0.7-0.2,1h-0.1	C12.1,6.4,11.3,6,10.4,6c-1.8,0-3.6,1.6-3.6,4.3c0,2.4,1.5,3.9,3.2,3.9c1.1,0,2-0.5,2.5-1.4h0c0.2,0.9,0.8,1.4,1.7,1.4	c0.3,0,0.7-0.1,0.8-0.1l0.1-1.7c-0.4,0-0.7-0.2-0.7-1.1c0-1.7,0.1-3.9,0.2-5.1H12.8z M9.3,10.1c0-1.2,0.6-2.3,1.5-2.3	c0.7,0,1.2,0.6,1.4,1.5c0,0.2,0,0.4,0,0.7c0,0.3,0,0.5,0,0.8c-0.1,0.8-0.7,1.5-1.4,1.5C9.9,12.3,9.3,11.3,9.3,10.1z"/></svg>