<svg xmlns="http://www.w3.org/2000/svg" xmlns:xlink="http://www.w3.org/1999/xlink" width="16" height="16" x="0" y="0" style="overflow:visible;enable-background:new 0 0 16 16" preserveAspectRatio="xMinYMid meet" version="1.1" viewBox="0 0 16 16" xml:space="preserve"><path style="fill:#999" d="M0,0v16h16V0H0z M15,15H1V1h14V15z M11,8.5L9,10L5,5l-3,8h12L11,8.5z M12.5,6c0.4,0,0.8-0.1,1.1-0.4	C13.9,5.3,14,4.9,14,4.5c0-0.4-0.1-0.8-0.4-1.1C13.3,3.1,12.9,3,12.5,3s-0.8,0.1-1.1,0.4C11.1,3.7,11,4.1,11,4.5	c0,0.4,0.1,0.8,0.4,1.1C11.7,5.9,12.1,6,12.5,6z"/></svg>