<svg xmlns="http://www.w3.org/2000/svg" xmlns:xlink="http://www.w3.org/1999/xlink" width="16" height="16" x="0" y="0" style="overflow:visible;enable-background:new -1 0 16 16" preserveAspectRatio="xMinYMid meet" version="1.1" viewBox="-1 0 16 16" xml:space="preserve"><path style="fill:#999" d="M13.7,6.1c-0.2-0.4-0.4-0.7-0.6-1l-2.2-2.2c-0.2-0.2-0.6-0.4-1-0.6C9.5,2.1,9.1,2,8.8,2H7	c0-1.1-0.9-2-2-2S3,0.9,3,2H1.2C0.9,2,0.6,2.1,0.4,2.4S0,2.9,0,3.2v11.5c0,0.3,0.1,0.6,0.4,0.9C0.6,15.9,0.9,16,1.2,16h11.5	c0.3,0,0.6-0.1,0.9-0.4c0.2-0.2,0.4-0.5,0.4-0.9V7.2C14,6.9,13.9,6.5,13.7,6.1z M10,3.4c0.1,0.1,0.1,0.1,0.2,0.2l2.2,2.2	c0,0.1,0.1,0.1,0.2,0.2H10V3.4z M5,1c0.5,0,1,0.4,1,1H4C4,1.4,4.5,1,5,1z M13,14.7c0,0.2-0.1,0.3-0.2,0.3H1.2C1.1,15,1,14.9,1,14.7	V3.2C1,3.1,1.1,3,1.2,3H3v4c0,1.1,0.9,2,2,2s2-0.9,2-2V4.8H6V7c0,0.6-0.4,1-1,1S4,7.5,4,7V3h4.8C8.8,3,8.9,3,9,3v4h4	c0,0.1,0,0.2,0,0.2V14.7z"/></svg>