<svg xmlns="http://www.w3.org/2000/svg" xmlns:xlink="http://www.w3.org/1999/xlink" width="16" height="16" x="0" y="0" style="overflow:visible;enable-background:new -1.2 0 16 16" preserveAspectRatio="xMinYMid meet" version="1.1" viewBox="-1.2 0 16 16" xml:space="preserve"><path style="fill:#999" d="M7.5,3.9V0l6,6l-6,6V8C6.2,8,5.1,8.2,4.2,8.5S2.6,9.3,2.2,9.8c-0.4,0.6-0.6,1.2-0.7,1.9	c-0.1,0.7,0,1.4,0.2,2.2c0.2,0.7,0.5,1.4,0.9,2.1c-0.7-0.8-1.3-1.6-1.7-2.5c-0.4-0.9-0.7-1.8-0.8-2.7c-0.1-0.9,0-1.8,0.2-2.6	C0.5,7.2,1,6.5,1.5,5.9c0.6-0.6,1.4-1.1,2.4-1.5C5,4,6.2,3.9,7.5,3.9z"/></svg>