<svg xmlns="http://www.w3.org/2000/svg" xmlns:xlink="http://www.w3.org/1999/xlink" width="16" height="16" x="0" y="0" style="overflow:visible;enable-background:new -2 -2 16 16" preserveAspectRatio="xMinYMid meet" version="1.1" viewBox="-2 -2 16 16" xml:space="preserve"><path style="fill:#999" d="M0,12h2v2H0V12z M3,9h2v2H3V9z M3,12h2v2H3V12z M6,6h2v2H6V6z M6,9h2v2H6V9z M6,12h2v2H6V12z M9,3h2	v2H9V3z M9,6h2v2H9V6z M9,9h2v2H9V9z M9,12h2v2H9V12z M12,0h2v2h-2V0z M12,3h2v2h-2V3z M12,6h2v2h-2V6z M12,9h2v2h-2V9z M12,12h2v2	h-2V12z"/></svg>