<svg xmlns="http://www.w3.org/2000/svg" xmlns:xlink="http://www.w3.org/1999/xlink" width="16" height="16" x="0" y="0" style="overflow:visible;enable-background:new -1 0 16 16" preserveAspectRatio="xMinYMid meet" version="1.1" viewBox="-1 0 16 16" xml:space="preserve"><path style="fill:#999" d="M1,7H0V1c0-0.3,0.1-0.5,0.3-0.7C0.5,0.1,0.7,0,1,0h2c0.3,0,0.5,0.1,0.7,0.3C3.9,0.5,4,0.7,4,1v6H3V4	H1V7z M1,3h2V1H1V3z M11,8l-5.5,4.7l-2.2-2.3L2,11.5L5.5,16L12,9L11,8z M8.3,3.5c0.5,0,0.7,0.3,0.7,1V6c0,0.3-0.1,0.5-0.3,0.7	C8.5,6.9,8.3,7,8,7H5V0h3c0.3,0,0.5,0.1,0.7,0.3C8.9,0.5,9,0.7,9,1v1.5C9,3.2,8.8,3.5,8.3,3.5z M8,1H6v2h2V1z M8,4H6v2h2V4z M11,1v5	h3v1h-3c-0.3,0-0.5-0.1-0.7-0.3C10.1,6.5,10,6.3,10,6V1c0-0.3,0.1-0.5,0.3-0.7C10.5,0.1,10.7,0,11,0h3v1H11z"/></svg>