<svg xmlns="http://www.w3.org/2000/svg" xmlns:xlink="http://www.w3.org/1999/xlink" width="16" height="16" x="0" y="0" style="overflow:visible;enable-background:new -2 -1.6 16 16" preserveAspectRatio="xMinYMid meet" version="1.1" viewBox="-2 -1.6 16 16" xml:space="preserve"><path style="fill:#999" d="M0,12c0.4,0,0.8-0.2,1-0.6c0.2-0.2,0.4-0.7,0.7-1.5l4-9.9h0.5l4,9.5c0.5,1.1,0.8,1.7,1,2.1	s0.5,0.5,0.9,0.4v0.5H6.4V12c0.6,0,1-0.1,1.2-0.1s0.3-0.3,0.3-0.6c0-0.1,0-0.4-0.1-0.6c-0.1-0.2-0.1-0.4-0.2-0.6L7,8.9H3	c-0.3,0.7-0.4,1.2-0.5,1.4c-0.2,0.5-0.2,0.8-0.2,1c0,0.3,0.2,0.4,0.5,0.6C3,11.9,3.3,11.9,3.7,12v0.5H0V12z M6.8,8.2L5,4H4.9	L3.2,8.2H6.8z"/></svg>