<svg xmlns="http://www.w3.org/2000/svg" xmlns:xlink="http://www.w3.org/1999/xlink" width="16" height="16" x="0" y="0" style="overflow:visible;enable-background:new 0 -2.5 16 16" preserveAspectRatio="xMinYMid meet" version="1.1" viewBox="0 -2.5 16 16" xml:space="preserve"><path style="fill:#999" d="M3.5,4c1,0,1.8,0.3,2.5,1c0.7,0.7,1,1.5,1,2.5c0,1-0.3,1.8-1,2.5c-0.7,0.7-1.5,1-2.5,1S1.7,10.7,1,10	C0.3,9.3,0,8.5,0,7.5V7c0-1.9,0.7-3.6,2-5c1.4-1.4,3-2,5-2v2C5.6,2,4.4,2.5,3.5,3.5C3.3,3.7,3.1,3.8,3,4C3.2,4,3.3,4,3.5,4z M12.5,4	c1,0,1.8,0.3,2.5,1c0.7,0.7,1,1.5,1,2.5c0,1-0.3,1.8-1,2.5c-0.7,0.7-1.5,1-2.5,1s-1.8-0.3-2.5-1C9.3,9.3,9,8.5,9,7.5V7	c0-1.9,0.7-3.6,2-5c1.4-1.4,3-2,5-2v2c-1.4,0-2.6,0.5-3.5,1.5C12.3,3.7,12.1,3.8,12,4C12.2,4,12.3,4,12.5,4z"/></svg>