<svg xmlns="http://www.w3.org/2000/svg" xmlns:xlink="http://www.w3.org/1999/xlink" width="16" height="16" x="0" y="0" style="overflow:visible;enable-background:new -1.2 0 16 16" preserveAspectRatio="xMinYMid meet" version="1.1" viewBox="-1.2 0 16 16" xml:space="preserve"><path style="fill:#999" d="M10.9,16c0.4-0.7,0.7-1.4,0.9-2.1c0.2-0.7,0.3-1.4,0.2-2.2c-0.1-0.7-0.3-1.4-0.7-1.9	c-0.4-0.6-1-1-1.9-1.3C8.4,8.2,7.3,8,6,8v4L0,6l6-6v3.9c1.4,0,2.5,0.2,3.6,0.5c1,0.4,1.8,0.9,2.4,1.5c0.6,0.6,1,1.4,1.3,2.2	c0.3,0.8,0.3,1.7,0.2,2.6c-0.1,0.9-0.4,1.8-0.8,2.7C12.2,14.4,11.6,15.2,10.9,16z"/></svg>