<svg xmlns="http://www.w3.org/2000/svg" xmlns:xlink="http://www.w3.org/1999/xlink" width="16" height="16" x="0" y="0" style="overflow:visible;enable-background:new 0 0 16 16" preserveAspectRatio="xMinYMid meet" version="1.1" viewBox="0 0 16 16" xml:space="preserve"><path style="fill:#999" d="M15,11v4h-4v-1h3v-3H15z M10,15v-1H8v-3H7v3H5v1H10z M4,14H1v-3H0v4h4V14z M15,10V5h-1v2h-3v1h3v2H15	z M7,8v2h1V8h2V7H8V5H7v2H5v1H7z M1,8h3V7H1V5H0v5h1V8z M14,1v3h1V0h-4v1H14z M7,1v3h1V1h2V0H5v1H7z M1,1h3V0H0v4h1V1z"/></svg>