<svg xmlns="http://www.w3.org/2000/svg" width="24" height="24" overflow="visible" preserveAspectRatio="xMinYMid meet" viewBox="0 -2 24 24"><linearGradient id="a" x1="18" x2="18" y1="10" y2="20" gradientUnits="userSpaceOnUse"><stop offset="0" stop-color="#F0A829"/><stop offset="1" stop-color="#C7671A"/></linearGradient><path fill="url(#a)" d="M13 10h10v10H13z"/><linearGradient id="b" x1="18" x2="18" y1="11" y2="19" gradientUnits="userSpaceOnUse"><stop offset="0" stop-color="#FFEBA8"/><stop offset="1" stop-color="#F8BE27"/></linearGradient><path fill="url(#b)" d="M14 11h8v8h-8z"/><linearGradient id="c" x1="18" x2="18" y1="12" y2="18" gradientUnits="userSpaceOnUse"><stop offset="0" stop-color="#FFC30F"/><stop offset="1" stop-color="#F5AE0D"/></linearGradient><path fill="url(#c)" d="M15 12h6v6h-6z"/><linearGradient id="d" x1="18" x2="18" y1="10" y2="14.001" gradientUnits="userSpaceOnUse"><stop offset="0" stop-color="#F0A829"/><stop offset="1" stop-color="#C7671A"/></linearGradient><path fill="url(#d)" d="M12 10h12v4H12z"/><linearGradient id="e" x1="18" x2="18" y1="11" y2="13.001" gradientUnits="userSpaceOnUse"><stop offset="0" stop-color="#FFC30F"/><stop offset="1" stop-color="#F5AE0D"/></linearGradient><path fill="url(#e)" d="M13 11h10v2H13z"/><linearGradient id="f" x1="18" x2="18" y1="10" y2="16.423" gradientUnits="userSpaceOnUse"><stop offset="0" stop-color="#8D470D"/><stop offset="1" stop-color="#7C3D09"/></linearGradient><path fill="url(#f)" d="M17 10v6.4l1-.9 1 .9V10"/><linearGradient id="g" x1="6" x2="6" y1="10" y2="20" gradientUnits="userSpaceOnUse"><stop offset="0" stop-color="#F0A829"/><stop offset="1" stop-color="#C7671A"/></linearGradient><path fill="url(#g)" d="M1 10h10v10H1z"/><linearGradient id="h" x1="6" x2="6" y1="11" y2="19" gradientUnits="userSpaceOnUse"><stop offset="0" stop-color="#FFEBA8"/><stop offset="1" stop-color="#F8BE27"/></linearGradient><path fill="url(#h)" d="M2 11h8v8H2z"/><linearGradient id="i" x1="6" x2="6" y1="12" y2="18" gradientUnits="userSpaceOnUse"><stop offset="0" stop-color="#FFC30F"/><stop offset="1" stop-color="#F5AE0D"/></linearGradient><path fill="url(#i)" d="M3 12h6v6H3z"/><linearGradient id="j" x1="6" x2="6" y1="10" y2="14.001" gradientUnits="userSpaceOnUse"><stop offset="0" stop-color="#F0A829"/><stop offset="1" stop-color="#C7671A"/></linearGradient><path fill="url(#j)" d="M0 10h12v4H0z"/><linearGradient id="k" x1="6" x2="6" y1="11" y2="13.001" gradientUnits="userSpaceOnUse"><stop offset="0" stop-color="#FFC30F"/><stop offset="1" stop-color="#F5AE0D"/></linearGradient><path fill="url(#k)" d="M1 11h10v2H1z"/><linearGradient id="l" x1="6" x2="6" y1="10" y2="16.423" gradientUnits="userSpaceOnUse"><stop offset="0" stop-color="#8D470D"/><stop offset="1" stop-color="#7C3D09"/></linearGradient><path fill="url(#l)" d="M5 10v6.4l1-.9 1 .9V10"/><linearGradient id="m" x1="11.999" x2="11.999" y2="10" gradientUnits="userSpaceOnUse"><stop offset="0" stop-color="#F0A829"/><stop offset="1" stop-color="#C7671A"/></linearGradient><path fill="url(#m)" d="M7 0h10v10H7z"/><linearGradient id="n" x1="11.999" x2="11.999" y1="1" y2="9" gradientUnits="userSpaceOnUse"><stop offset="0" stop-color="#FFEBA8"/><stop offset="1" stop-color="#F8BE27"/></linearGradient><path fill="url(#n)" d="M8 1h8v8H8z"/><linearGradient id="o" x1="11.999" x2="11.999" y1="2" y2="8" gradientUnits="userSpaceOnUse"><stop offset="0" stop-color="#FFC30F"/><stop offset="1" stop-color="#F5AE0D"/></linearGradient><path fill="url(#o)" d="M9 2h6v6H9z"/><linearGradient id="p" x1="11.999" x2="11.999" y2="4" gradientUnits="userSpaceOnUse"><stop offset="0" stop-color="#F0A829"/><stop offset="1" stop-color="#C7671A"/></linearGradient><path fill="url(#p)" d="M6 0h12v4H6z"/><linearGradient id="q" x1="11.999" x2="11.999" y1="1" y2="3" gradientUnits="userSpaceOnUse"><stop offset="0" stop-color="#FFC30F"/><stop offset="1" stop-color="#F5AE0D"/></linearGradient><path fill="url(#q)" d="M7 1h10v2H7z"/><linearGradient id="r" x1="11.999" x2="11.999" y2="6.423" gradientUnits="userSpaceOnUse"><stop offset="0" stop-color="#8D470D"/><stop offset="1" stop-color="#7C3D09"/></linearGradient><path fill="url(#r)" d="M11 0v6.4l1-.9 1 .9V0"/></svg>