<svg xmlns="http://www.w3.org/2000/svg" xmlns:xlink="http://www.w3.org/1999/xlink" width="16" height="16" x="0" y="0" style="overflow:visible;enable-background:new -.6 0 16 16" preserveAspectRatio="xMinYMid meet" version="1.1" viewBox="-0.6 0 16 16" xml:space="preserve"><path style="fill:#999" d="M13.5,10.5c1.2-4.7,1.5-6.7-1.2-8.9c-0.9-0.8-0.2-1.3-1.1-1.6c-0.9-0.3-0.6,0.6-1.8,0.5	C6.1,0.5,5.1,2.2,3,6.6c-0.9,1.9-2.3,0.8-3,2.7c-0.5,1.4,2,4.3,5.9,5.7c3.9,1.5,7.6,0.9,8.1-0.5C14.8,12.6,13,12.5,13.5,10.5z M10.8,14.4c-1.3,0-2.8-0.3-4.3-0.9c-1.7-0.6-3.2-1.5-4.1-2.5c-0.8-0.8-0.9-1.3-0.9-1.4c0-0.1,0.5-0.5,2-0.5c1.3,0,2.8,0.3,4.3,0.9	c3.7,1.4,5.2,3.4,5,3.9C12.8,14,12.3,14.4,10.8,14.4z M6.5,10.6C6.5,10.6,6.5,10.6,6.5,10.6c-0.3,1,0.5,2.1,1.9,2.7	c1.1,0.4,2.2,0.3,2.7-0.3c-0.8-0.7-2.1-1.5-3.9-2.2C7,10.8,6.7,10.7,6.5,10.6z"/></svg>