<svg xmlns="http://www.w3.org/2000/svg" xmlns:svg="http://www.w3.org/2000/svg" style="enable-background:new 0 0 400 225" id="Layer_1" x="0" y="0" preserveAspectRatio="xMinYMid meet" version="1.1" viewBox="0 0 400 225" xml:space="preserve"><metadata id="metadata37"/><style id="style2" type="text/css">.st0{fill:none}</style><title id="title4">tweeter feed</title><g id="g879" transform="translate(7.6293945e-6)"><rect style="fill:#fff;fill-opacity:1" id="rect873" width="186.864" height="186.864" x="106.568" y="19.068" rx="24.788" ry="24.788"/><g id="g848" transform="matrix(0.4649826,0,0,0.4649826,119.81375,77.393814)" style="fill:#2e5fbf;fill-opacity:1"><path id="path844" d="M 325.7,14.7 C 317.6,6.9 305.3,3 289,3 H 245.5 234 v 31 h -66 l -5.4,22.2 c 4.5,-2.1 10.9,-4.2 15.3,-5.3 4.4,-1.1 8.8,-0.9 13.1,-0.9 14.6,0 26.5,4.5 35.6,13.3 9.1,8.8 13.6,20 13.6,33.4 0,9.4 -2.3,18.5 -7,27.2 -4.7,8.7 -11.3,15.4 -19.9,20 -3.1,1.6 -6.5,3.1 -10.2,4.1 H 245.5 259 V 95 h 25 c 18.2,0 31.7,-4.2 40.6,-12.5 8.9,-8.3 13.3,-19.9 13.3,-34.6 0,-14.3 -4.1,-25.4 -12.2,-33.2 z m -37,45.9 c -3.5,3 -9.6,4.4 -18.3,4.4 H 259 V 33 h 13.2 c 8.4,0 14.2,1.5 17.2,4.7 3.1,3.2 4.6,6.9 4.6,11.5 0,4.7 -1.8,8.4 -5.3,11.4 z" style="fill:#2e5fbf;fill-opacity:1"/><path id="path846" d="m 176.5,76.3 c -7.9,0 -14.7,4.6 -18,11.2 L 119,81.9 136.8,3 H 113.2 101 V 65 H 51 V 3 H 7 V 148 H 51 V 95 h 50 v 53 h 12.2 42 c -6.7,-2 -12.5,-4.6 -17.2,-8.1 -4.8,-3.6 -8.7,-7.7 -11.7,-12.3 -3,-4.6 -5.3,-9.7 -7.3,-16.5 l 39.6,-5.7 c 3.3,6.6 10.1,11.1 17.9,11.1 11.1,0 20.1,-9 20.1,-20.1 0,-11.1 -9.1,-20.1 -20.1,-20.1 z" style="fill:#2e5fbf;fill-opacity:1"/></g></g><rect style="fill:none" id="rect6" width="400" height="225" x="0" y="0" class="st0"/></svg>