<svg xmlns="http://www.w3.org/2000/svg" width="24" height="24" overflow="visible" preserveAspectRatio="xMinYMid meet" viewBox="0 0 24 24"><linearGradient id="a" x1="5.5" x2="5.5" y1="10" y2="14.001" gradientUnits="userSpaceOnUse"><stop offset="0" stop-color="#95BFF8"/><stop offset=".557" stop-color="#84ADEF"/><stop offset="1" stop-color="#7CA4EB"/></linearGradient><path fill="url(#a)" d="M5 10h1v4H5z"/><linearGradient id="b" x1="15" x2="15" y1="5" y2="9" gradientUnits="userSpaceOnUse"><stop offset="0" stop-color="#95BFF8"/><stop offset=".557" stop-color="#84ADEF"/><stop offset="1" stop-color="#7CA4EB"/></linearGradient><path fill="url(#b)" d="M18 5h-7v1h7v3h1V5"/><linearGradient id="c" x1="5.5" x2="5.5" y1="14" y2="24" gradientUnits="userSpaceOnUse"><stop offset="0" stop-color="#76A1F0"/><stop offset="1" stop-color="#6B90D5"/></linearGradient><path fill="url(#c)" d="M10 14H1c-.6 0-1 .4-1 1v9h11v-9c0-.6-.4-1-1-1z"/><linearGradient id="d" x1="5.5" x2="5.5" y1="17" y2="23" gradientUnits="userSpaceOnUse"><stop offset="0" stop-color="#E7F4FC"/><stop offset="1" stop-color="#DEEFFC"/></linearGradient><path fill="url(#d)" d="M1 17h9v6H1z"/><linearGradient id="e" x1="5.5" x2="5.5" y1="18" y2="22" gradientUnits="userSpaceOnUse"><stop offset="0" stop-color="#CEE9F9"/><stop offset="1" stop-color="#BBDFF8"/></linearGradient><path fill="url(#e)" d="M2 18h7v4H2z"/><linearGradient id="f" x1="5.5" x2="5.5" y1="15" y2="16" gradientUnits="userSpaceOnUse"><stop offset="0" stop-color="#BBE0F7"/><stop offset="1" stop-color="#82B4FB"/></linearGradient><path fill="url(#f)" d="M1 15h9v1H1z"/><linearGradient id="g" x1="18.5" x2="18.5" y1="9" y2="19" gradientUnits="userSpaceOnUse"><stop offset="0" stop-color="#76A1F0"/><stop offset="1" stop-color="#6B90D5"/></linearGradient><path fill="url(#g)" d="M23 9h-9c-.6 0-1 .4-1 1v9h11v-9c0-.6-.4-1-1-1z"/><linearGradient id="h" x1="18.5" x2="18.5" y1="12" y2="18" gradientUnits="userSpaceOnUse"><stop offset="0" stop-color="#E7F4FC"/><stop offset="1" stop-color="#DEEFFC"/></linearGradient><path fill="url(#h)" d="M14 12h9v6h-9z"/><linearGradient id="i" x1="18.5" x2="18.5" y1="13" y2="17" gradientUnits="userSpaceOnUse"><stop offset="0" stop-color="#CEE9F9"/><stop offset="1" stop-color="#BBDFF8"/></linearGradient><path fill="url(#i)" d="M15 13h7v4h-7z"/><linearGradient id="j" x1="18.5" x2="18.5" y1="10" y2="11" gradientUnits="userSpaceOnUse"><stop offset="0" stop-color="#BBE0F7"/><stop offset="1" stop-color="#82B4FB"/></linearGradient><path fill="url(#j)" d="M14 10h9v1h-9z"/><linearGradient id="k" x1="5.5" x2="5.5" y2="10" gradientUnits="userSpaceOnUse"><stop offset="0" stop-color="#76A1F0"/><stop offset="1" stop-color="#6B90D5"/></linearGradient><path fill="url(#k)" d="M10 0H1C.4 0 0 .4 0 1v9h11V1c0-.6-.4-1-1-1z"/><linearGradient id="l" x1="5.5" x2="5.5" y1="3" y2="9" gradientUnits="userSpaceOnUse"><stop offset="0" stop-color="#E7F4FC"/><stop offset="1" stop-color="#DEEFFC"/></linearGradient><path fill="url(#l)" d="M1 3h9v6H1z"/><linearGradient id="m" x1="5.5" x2="5.5" y1="4" y2="8" gradientUnits="userSpaceOnUse"><stop offset="0" stop-color="#CEE9F9"/><stop offset="1" stop-color="#BBDFF8"/></linearGradient><path fill="url(#m)" d="M2 4h7v4H2z"/><linearGradient id="n" x1="5.5" x2="5.5" y1="1" y2="2" gradientUnits="userSpaceOnUse"><stop offset="0" stop-color="#BBE0F7"/><stop offset="1" stop-color="#82B4FB"/></linearGradient><path fill="url(#n)" d="M1 1h9v1H1z"/></svg>